# xmcd
#
# Track frame offsets:
#	183
#	17295
#	29755
#	41338
#	55655
#	70325
#	84045
#	99648
#	115993
#	130355
#	145803
#	160095
#	173468
#	184378
#	199065
#	210935
#	223588
#	238025
#	251363
#	267053
#	281608
#	296210
#	307025
#	318988
#
# Disc length: 4404 seconds
#
# Revision: 3
# Processed by: cddbd v1.5.2PL0 Copyright (c) Steve Scherf et al.
# Submitted via: audiograbber 1.83.01
#
DISCID=55113218
DTITLE=Glenn Miller - Memorial for Glenn Miller
DYEAR=1997
DGENRE=Jazz
TTITLE0=In The Mood
TTITLE1=Sweet Georgia Brown
TTITLE2=Stompin' at the Savoy
TTITLE3=Moonlight Serenade
TTITLE4=Laura
TTITLE5=Blue Moon
TTITLE6=Pagan Love Song
TTITLE7=Cheek to Cheek
TTITLE8=Stardust
TTITLE9=Tuxedo Junction
TTITLE10=All the Things You Are
TTITLE11=April in Paris
TTITLE12=Night and Day
TTITLE13=The Man in Love
TTITLE14=Lady is a Tramp
TTITLE15=Georgia on my Mind
TTITLE16=Stormy Weather
TTITLE17=My Heart Belongs to Daddy
TTITLE18=Sentimental Journey
TTITLE19=Sunrise Serenade
TTITLE20=Pennsylvania Six-Five Thousand
TTITLE21=Jumpin' at the Woodside
TTITLE22=A tisket a Tasket
TTITLE23=Jeepers Creepers
EXTD=YEAR: 1997
EXTT0=
EXTT1=
EXTT2=
EXTT3=
EXTT4=
EXTT5=
EXTT6=
EXTT7=
EXTT8=
EXTT9=
EXTT10=
EXTT11=
EXTT12=
EXTT13=
EXTT14=
EXTT15=
EXTT16=
EXTT17=
EXTT18=
EXTT19=
EXTT20=
EXTT21=
EXTT22=
EXTT23=
PLAYORDER=
